<?xml version="1.0" standalone="no"?>
<!DOCTYPE svg PUBLIC "-//W3C//DTD SVG 20010904//EN"
 "http://www.w3.org/TR/2001/REC-SVG-20010904/DTD/svg10.dtd">
<svg version="1.0" xmlns="http://www.w3.org/2000/svg"
 width="3813.000000pt" height="3813.000000pt" viewBox="0 0 3813.000000 3813.000000"
 preserveAspectRatio="xMidYMid meet">
<metadata>
Created by potrace 1.14, written by Peter Selinger 2001-2017
</metadata>
<g transform="translate(0.000000,3813.000000) scale(0.100000,-0.100000)"
fill="#000000" stroke="none">
<path d="M37496 26241 c-4 -5 3 -7 14 -4 23 6 26 13 6 13 -8 0 -17 -4 -20 -9z"/>
<path d="M37548 26243 c7 -3 16 -2 19 1 4 3 -2 6 -13 5 -11 0 -14 -3 -6 -6z"/>
<path d="M37588 26243 c6 -2 18 -2 25 0 6 3 1 5 -13 5 -14 0 -19 -2 -12 -5z"/>
<path d="M37277 26233 c-1 0 -58 -4 -127 -8 -69 -4 -152 -9 -185 -11 -33 -2
-103 -6 -155 -9 -52 -3 -122 -7 -155 -9 -33 -2 -112 -7 -175 -11 -63 -4 -131
-8 -150 -10 -19 -2 -84 -6 -145 -10 -60 -4 -126 -8 -145 -10 -30 -3 -125 -9
-290 -20 -65 -5 -195 -14 -265 -20 -33 -3 -91 -7 -130 -10 -38 -3 -97 -7 -130
-10 -33 -2 -91 -7 -130 -10 -38 -3 -90 -8 -115 -10 -25 -2 -76 -7 -115 -10
-82 -6 -182 -14 -245 -20 -25 -2 -76 -6 -115 -10 -38 -3 -90 -8 -115 -10 -25
-3 -76 -7 -115 -10 -38 -3 -86 -7 -105 -10 -31 -3 -68 -7 -215 -20 -22 -2 -71
-7 -110 -11 -92 -9 -116 -11 -205 -18 -41 -3 -84 -8 -95 -10 -11 -2 -56 -7
-100 -10 -44 -4 -96 -8 -115 -11 -55 -7 -119 -14 -190 -20 -36 -3 -76 -8 -90
-10 -14 -2 -61 -7 -105 -11 -44 -3 -89 -8 -100 -10 -10 -2 -49 -6 -85 -9 -36
-3 -78 -7 -95 -10 -27 -4 -66 -8 -175 -20 -96 -10 -157 -17 -180 -20 -14 -2
-52 -7 -85 -10 -33 -3 -71 -8 -85 -10 -14 -3 -52 -7 -85 -10 -33 -3 -71 -8
-85 -10 -14 -2 -54 -7 -90 -11 -36 -3 -72 -7 -80 -9 -8 -2 -44 -6 -80 -10 -36
-4 -74 -9 -85 -11 -11 -2 -45 -6 -75 -9 -50 -5 -177 -21 -240 -30 -52 -8 -126
-17 -165 -20 -22 -2 -53 -6 -70 -9 -31 -5 -91 -13 -160 -22 -22 -2 -71 -9
-110 -14 -38 -6 -88 -12 -110 -15 -43 -5 -84 -10 -185 -25 -36 -5 -85 -12
-110 -15 -70 -10 -97 -13 -215 -30 -60 -9 -126 -18 -145 -21 -19 -2 -48 -6
-65 -9 -16 -3 -48 -7 -70 -10 -22 -3 -55 -8 -73 -11 -17 -3 -49 -7 -70 -9 -20
-3 -48 -7 -62 -10 -29 -5 -54 -9 -165 -25 -83 -12 -88 -13 -195 -29 -36 -6
-83 -13 -105 -16 -22 -4 -53 -9 -70 -11 -16 -3 -43 -7 -60 -10 -29 -3 -95 -14
-125 -19 -8 -2 -51 -8 -95 -15 -44 -7 -89 -14 -100 -16 -11 -2 -40 -7 -65 -10
-25 -3 -52 -7 -60 -9 -8 -3 -33 -7 -55 -10 -39 -6 -195 -32 -245 -40 -29 -6
-203 -34 -240 -40 -14 -2 -81 -14 -150 -26 -164 -28 -161 -27 -190 -33 -14 -3
-90 -16 -170 -30 -80 -14 -208 -37 -285 -51 -77 -13 -153 -27 -170 -30 -16 -3
-52 -10 -80 -15 -27 -5 -63 -12 -80 -15 -64 -11 -94 -16 -215 -40 -69 -13
-174 -33 -235 -45 -60 -11 -121 -22 -135 -25 -14 -3 -95 -19 -180 -36 -85 -17
-166 -33 -180 -35 -27 -5 -262 -52 -295 -60 -11 -2 -36 -7 -55 -11 -19 -4 -37
-8 -40 -8 -3 -1 -25 -5 -50 -10 -25 -5 -47 -9 -50 -10 -3 -1 -23 -5 -45 -9
-243 -49 -1233 -265 -1470 -321 -60 -15 -119 -28 -130 -30 -11 -2 -78 -17
-150 -34 -71 -18 -141 -34 -155 -37 -14 -3 -70 -16 -125 -30 -55 -13 -109 -26
-120 -29 -11 -2 -78 -18 -150 -35 -71 -18 -141 -34 -155 -36 -14 -3 -32 -7
-40 -10 -8 -4 -69 -19 -135 -35 -66 -17 -127 -31 -135 -34 -20 -4 -410 -104
-435 -111 -11 -3 -29 -7 -40 -9 -11 -2 -216 -56 -455 -120 -239 -64 -444 -118
-455 -120 -11 -3 -148 -41 -305 -85 -157 -45 -292 -82 -300 -84 -8 -2 -42 -12
-75 -22 -33 -10 -64 -19 -70 -20 -18 -4 -215 -61 -410 -119 -104 -31 -206 -61
-225 -66 -56 -15 -60 -17 -165 -48 -240 -71 -914 -279 -1005 -311 -14 -4 -140
-45 -280 -90 -424 -136 -1069 -353 -1465 -493 -343 -121 -587 -208 -615 -220
-14 -5 -29 -11 -35 -12 -72 -17 -1832 -694 -2000 -770 -16 -7 -91 -38 -165
-68 -165 -67 -610 -253 -665 -277 -22 -10 -101 -44 -175 -76 -74 -31 -157 -67
-185 -79 -27 -12 -99 -44 -160 -70 -60 -26 -132 -58 -160 -70 -27 -13 -106
-48 -175 -78 -69 -30 -151 -66 -182 -81 -32 -14 -84 -38 -115 -52 -32 -15 -76
-34 -98 -44 -22 -10 -74 -33 -115 -53 -41 -19 -100 -46 -130 -60 -116 -53
-189 -87 -314 -146 -70 -33 -130 -61 -131 -61 -2 0 -76 -35 -166 -79 -90 -43
-222 -106 -294 -141 -348 -167 -1106 -548 -1465 -737 -69 -36 -177 -93 -240
-126 -166 -87 -422 -226 -440 -237 -8 -6 -22 -13 -30 -17 -17 -8 -453 -247
-515 -283 -22 -13 -62 -35 -90 -50 -38 -21 -429 -244 -533 -305 -9 -5 -60 -34
-112 -64 -52 -30 -106 -62 -120 -71 -14 -10 -45 -28 -70 -42 -25 -14 -81 -47
-125 -73 -44 -26 -93 -56 -110 -65 -49 -28 -488 -295 -549 -334 -31 -20 -61
-36 -66 -36 -6 0 -10 -4 -10 -10 0 -5 -4 -10 -9 -10 -6 0 -49 -25 -98 -56 -48
-31 -107 -68 -131 -83 -24 -14 -83 -51 -130 -82 -48 -30 -94 -58 -102 -62 -8
-4 -62 -38 -120 -76 -58 -38 -139 -91 -180 -117 -118 -75 -790 -522 -945 -628
-77 -53 -151 -104 -165 -114 -14 -9 -108 -75 -210 -146 -102 -72 -206 -144
-231 -161 -25 -17 -61 -43 -80 -56 -19 -14 -92 -68 -164 -119 -71 -51 -149
-107 -171 -124 -23 -17 -52 -38 -64 -46 -12 -8 -41 -29 -64 -46 -22 -17 -187
-140 -366 -274 -178 -134 -356 -268 -395 -299 -40 -31 -87 -67 -105 -81 -31
-23 -189 -147 -275 -215 -180 -143 -252 -201 -263 -212 -7 -7 -16 -13 -20 -13
-4 0 -23 -15 -42 -33 -19 -17 -69 -59 -110 -92 -41 -33 -84 -67 -95 -76 -11
-9 -105 -88 -210 -175 -170 -141 -398 -334 -480 -405 -16 -15 -91 -79 -165
-144 -150 -131 -259 -227 -300 -265 -15 -14 -43 -38 -61 -55 -19 -16 -63 -56
-99 -89 -36 -33 -90 -82 -120 -109 -51 -46 -209 -192 -305 -282 -37 -35 -307
-291 -398 -378 -21 -21 -37 -43 -34 -51 9 -23 289 -460 302 -471 8 -7 637 -10
1852 -10 l1841 0 289 285 c240 237 425 415 658 635 18 17 66 62 106 100 41 39
121 113 178 165 57 52 109 100 115 106 6 5 90 81 186 168 96 87 191 172 210
190 19 17 73 65 120 106 47 41 87 77 90 80 9 9 154 136 184 161 16 13 38 33
50 44 12 11 48 43 81 70 33 28 62 52 65 55 3 3 37 32 75 65 39 33 72 63 75 66
3 3 151 127 330 275 366 305 786 643 1090 879 113 88 210 163 215 167 64 50
186 143 300 228 77 58 142 107 145 110 29 31 887 651 1220 881 85 59 160 111
165 116 6 4 51 35 100 69 50 33 122 83 160 109 186 128 791 528 935 618 36 23
67 44 70 47 3 3 21 15 40 27 19 11 136 84 260 163 243 154 505 316 775 480 94
56 202 122 240 145 39 23 165 98 280 165 116 67 227 133 247 146 21 13 40 24
43 24 3 0 24 12 46 26 23 14 62 37 87 51 25 14 123 69 216 123 246 140 585
328 701 390 55 29 105 56 110 60 6 4 42 24 80 44 39 20 77 41 85 46 36 23 562
299 880 463 326 167 1174 589 1190 592 3 0 46 20 95 44 464 226 1052 495 1665
763 151 66 294 129 317 139 23 10 44 19 47 19 2 0 33 13 68 29 35 16 119 52
188 80 118 49 168 70 215 91 11 5 49 21 85 35 36 15 79 32 95 40 17 7 143 59
280 114 138 56 259 106 270 111 24 11 453 180 610 240 61 23 149 57 198 76
139 54 255 98 357 137 232 87 342 128 445 165 61 22 153 56 205 75 526 193
1530 536 2130 728 124 39 250 80 280 89 65 22 589 184 640 198 19 6 148 44
285 85 244 74 725 215 755 222 8 2 129 35 267 75 139 39 260 73 270 75 10 2
68 18 128 35 61 17 118 33 128 35 10 2 104 27 210 56 106 28 225 60 265 70 40
10 161 42 270 70 108 29 213 55 232 60 19 4 136 33 260 64 211 53 577 142 610
150 16 3 315 74 340 80 81 20 995 224 1035 231 17 3 55 11 85 18 30 8 73 17
95 22 22 4 45 8 50 10 6 1 26 5 45 8 19 4 43 9 53 12 11 3 29 7 40 9 12 1 54
10 92 19 39 8 81 18 95 20 14 2 162 32 330 66 168 34 316 64 330 66 14 3 39 7
55 11 42 9 45 10 85 17 19 3 49 8 65 12 222 42 358 68 449 84 61 11 122 22
136 25 14 3 102 19 195 35 94 17 181 32 195 35 14 3 42 7 62 10 20 3 56 9 80
14 24 5 61 12 83 16 45 6 76 11 155 25 30 5 69 12 85 14 17 3 73 12 125 21
123 21 137 23 184 30 21 4 46 8 55 10 14 2 53 8 131 20 14 3 68 11 120 19 52
9 113 18 135 21 22 4 51 8 65 10 79 13 292 45 330 50 25 3 74 11 110 16 36 6
79 12 95 14 47 5 247 35 275 40 14 3 48 7 75 10 28 4 61 8 75 10 21 3 93 13
305 41 22 3 51 7 65 9 14 2 50 7 80 10 30 3 66 8 80 10 14 2 48 7 75 10 28 3
68 8 90 11 22 2 58 7 80 10 22 2 58 6 80 9 22 3 56 7 75 9 100 11 157 19 174
22 10 2 50 6 88 9 38 4 78 8 89 10 11 2 50 7 87 10 37 3 83 8 102 10 62 8 153
18 270 30 30 3 71 8 90 10 19 2 69 7 110 10 96 8 144 13 200 19 25 3 79 9 120
12 41 4 89 8 105 9 17 2 66 6 110 10 44 4 93 8 108 10 16 2 73 6 127 10 55 4
107 8 117 10 10 2 42 4 71 4 28 1 52 4 52 9 0 6 -48 11 -53 5z"/>
<path d="M37344 26233 c8 -8 127 -5 135 3 2 2 -29 4 -69 4 -40 0 -70 -3 -66
-7z"/>
<path d="M582 20980 l-52 -5 -60 -115 c-33 -63 -81 -157 -107 -208 l-48 -93
29 -22 c16 -12 48 -35 72 -52 39 -28 1119 -816 1353 -988 58 -42 117 -85 131
-95 14 -9 151 -109 305 -221 154 -112 453 -331 665 -485 212 -154 391 -286
398 -293 7 -7 17 -13 22 -13 5 0 15 -6 22 -13 7 -7 146 -109 308 -227 162
-118 300 -218 305 -223 13 -10 251 -184 306 -223 24 -17 172 -124 329 -239
219 -160 288 -205 300 -198 8 6 35 21 60 35 25 14 95 53 155 88 61 34 130 74
155 88 25 14 95 53 155 87 122 69 149 84 315 175 63 34 135 74 160 88 59 33
125 68 235 127 50 26 110 59 135 73 45 24 158 84 430 226 80 42 335 172 568
289 l423 212 -24 20 c-13 11 -64 49 -113 84 -49 36 -156 115 -238 175 -83 61
-178 131 -212 156 -168 121 -460 335 -464 340 -3 3 -16 13 -30 22 -47 32 -111
78 -123 89 -15 13 -641 473 -684 502 -17 12 -129 94 -249 182 -291 215 -313
231 -354 259 -19 14 -120 88 -225 166 -104 78 -201 148 -215 158 -14 9 -42 29
-63 45 l-38 29 -1992 2 c-1096 0 -2016 -1 -2045 -4z"/>
<path d="M10365 16420 c-132 -98 -289 -216 -349 -262 -167 -127 -439 -337
-456 -351 -8 -6 -76 -59 -150 -116 -74 -58 -137 -107 -140 -111 -3 -3 -21 -17
-42 -32 -20 -15 -42 -33 -50 -41 -7 -7 -56 -46 -108 -87 -52 -40 -97 -76 -100
-79 -3 -4 -60 -50 -127 -104 -67 -53 -128 -103 -135 -110 -7 -6 -72 -59 -143
-117 -72 -57 -136 -111 -144 -118 -8 -7 -45 -38 -82 -69 -38 -30 -66 -59 -63
-64 3 -5 38 -33 79 -62 40 -28 167 -120 282 -204 114 -84 303 -221 418 -306
665 -484 1153 -840 1245 -907 239 -174 686 -499 695 -507 6 -4 69 -50 140
-102 72 -52 171 -124 220 -161 50 -36 223 -162 385 -280 162 -118 297 -218
298 -222 2 -5 10 -8 17 -8 7 0 15 -4 17 -8 2 -4 42 -36 89 -70 l86 -62 2067 2
2068 3 84 189 c46 104 83 190 82 192 -2 1 -52 39 -113 83 -60 45 -114 85 -120
89 -5 4 -118 87 -250 183 -132 96 -280 205 -330 241 -49 37 -189 139 -310 227
-121 88 -229 167 -240 175 -11 8 -110 81 -220 162 -110 80 -262 192 -339 248
-76 55 -186 136 -245 179 -58 43 -141 104 -184 135 -43 31 -140 102 -215 157
-75 56 -222 163 -327 240 -104 76 -255 186 -335 245 -80 59 -332 243 -560 410
-228 167 -446 326 -485 355 -38 28 -155 114 -260 190 -104 76 -203 149 -220
162 -16 12 -178 131 -360 263 -181 132 -338 247 -348 255 -9 8 -22 15 -27 15
-6 0 -10 3 -10 8 0 4 -17 18 -38 32 -20 14 -58 41 -83 60 -26 19 -57 42 -70
52 -25 17 -226 164 -244 179 -6 4 -110 -67 -250 -171z"/>
</g>
</svg>
